<svg xmlns="http://www.w3.org/2000/svg" style="margin:auto;display:block;" height="100" preserveAspectRatio="xMidYMid">
<style type="text/css">
  text {
    text-anchor: middle; font-size: 56px; opacity: 0;
  }
</style>
<g style="transform-origin:264.5px 80px;transform:scale(1)">
<g transform="translate(264.5,80)">
  <g transform="translate(0,0)"><g class="path" style="transform: rotate(0deg); transform-origin: -193.495px -24.3102px; animation: 1s linear -0.594s infinite normal forwards running jingle-8f868426-caed-4afe-a914-11dbd5dae58d;"><path d="M5.03 0L5.03-39.21L33.61-39.21L33.61-33.61L10.64-33.61L10.64-22.39L30.24-22.39L30.24-16.79L10.64-16.79L10.64-5.61L33.61-5.61L33.61 0L5.03 0" fill="#2f2926" stroke="none" stroke-width="none" transform="translate(-212.8150634765625,14.89980110168457)" style="fill: rgb(47, 41, 38);"></path></g><g class="path" style="transform: rotate(0deg); transform-origin: -154.575px -24.3102px; animation: 1s linear -0.528s infinite normal forwards running jingle-8f868426-caed-4afe-a914-11dbd5dae58d;"><path d="M42-5.61L42-33.61L42-33.61Q42-34.75 42.44-35.78L42.44-35.78L42.44-35.78Q42.88-36.80 43.64-37.56L43.64-37.56L43.64-37.56Q44.41-38.31 45.43-38.76L45.43-38.76L45.43-38.76Q46.46-39.21 47.61-39.21L47.61-39.21L68.88-39.21L68.88-39.21Q70.03-39.21 71.05-38.76L71.05-38.76L71.05-38.76Q72.08-38.31 72.84-37.56L72.84-37.56L72.84-37.56Q73.61-36.80 74.05-35.78L74.05-35.78L74.05-35.78Q74.48-34.75 74.48-33.61L74.48-33.61L74.48-28.55L68.88-28.55L68.88-33.61L47.61-33.61L47.61-5.61L68.88-5.61L68.88-15.12L58.24-15.12L58.24-20.73L74.48-20.73L74.48-5.61L74.48-5.61Q74.48-4.46 74.05-3.43L74.05-3.43L74.05-3.43Q73.61-2.41 72.84-1.64L72.84-1.64L72.84-1.64Q72.08-0.88 71.05-0.44L71.05-0.44L71.05-0.44Q70.03 0 68.88 0L68.88 0L47.61 0L47.61 0Q46.46 0 45.43-0.44L45.43-0.44L45.43-0.44Q44.41-0.88 43.64-1.64L43.64-1.64L43.64-1.64Q42.88-2.41 42.44-3.43L42.44-3.43L42.44-3.43Q42-4.46 42-5.61L42-5.61" fill="#2f2926" stroke="none" stroke-width="none" transform="translate(-212.8150634765625,14.89980110168457)" style="fill: rgb(96, 52, 23);"></path></g><g class="path" style="transform: rotate(0deg); transform-origin: -96.6301px -24.3102px; animation: 1s linear -0.462s infinite normal forwards running jingle-8f868426-caed-4afe-a914-11dbd5dae58d;"><path d="M125.97-16.79L106.94-16.79L106.94-16.79Q105.79-16.79 104.77-17.24L104.77-17.24L104.77-17.24Q103.74-17.69 102.98-18.44L102.98-18.44L102.98-18.44Q102.21-19.20 101.77-20.22L101.77-20.22L101.77-20.22Q101.34-21.25 101.34-22.39L101.34-22.39L101.34-33.61L101.34-33.61Q101.34-34.75 101.77-35.78L101.77-35.78L101.77-35.78Q102.21-36.80 102.98-37.56L102.98-37.56L102.98-37.56Q103.74-38.31 104.77-38.76L104.77-38.76L104.77-38.76Q105.79-39.21 106.94-39.21L106.94-39.21L125.97-39.21L125.97-39.21Q127.12-39.21 128.15-38.76L128.15-38.76L128.15-38.76Q129.17-38.31 129.94-37.56L129.94-37.56L129.94-37.56Q130.70-36.80 131.14-35.78L131.14-35.78L131.14-35.78Q131.58-34.75 131.58-33.61L131.58-33.61L131.58-28.55L125.97-28.55L125.97-33.61L106.94-33.61L106.94-22.39L125.97-22.39L125.97-22.39Q127.12-22.39 128.15-21.96L128.15-21.96L128.15-21.96Q129.17-21.52 129.94-20.75L129.94-20.75L129.94-20.75Q130.70-19.99 131.14-18.96L131.14-18.96L131.14-18.96Q131.58-17.94 131.58-16.79L131.58-16.79L131.58-5.61L131.58-5.61Q131.58-4.46 131.14-3.43L131.14-3.43L131.14-3.43Q130.70-2.41 129.94-1.64L129.94-1.64L129.94-1.64Q129.17-0.88 128.15-0.44L128.15-0.44L128.15-0.44Q127.12 0 125.97 0L125.97 0L106.39 0L106.39 0Q105.25 0 104.22-0.44L104.22-0.44L104.22-0.44Q103.20-0.88 102.43-1.64L102.43-1.64L102.43-1.64Q101.66-2.41 101.23-3.43L101.23-3.43L101.23-3.43Q100.79-4.46 100.79-5.61L100.79-5.61L100.79-10.64L106.39-10.64L106.39-5.61L125.97-5.61L125.97-16.79" fill="#2f2926" stroke="none" stroke-width="none" transform="translate(-212.8150634765625,14.89980110168457)" style="fill: rgb(116, 65, 31);"></path></g><g class="path" style="transform: rotate(0deg); transform-origin: -54.3151px -24.3102px; animation: 1s linear -0.396s infinite normal forwards running jingle-8f868426-caed-4afe-a914-11dbd5dae58d;"><path d="M169.72-39.21L175.33-39.21L175.33 0L169.72 0L169.72-16.79L147.27-16.79L147.27 0L141.67 0L141.67-39.21L147.27-39.21L147.27-22.39L169.72-22.39L169.72-39.21" fill="#2f2926" stroke="none" stroke-width="none" transform="translate(-212.8150634765625,14.89980110168457)" style="fill: rgb(142, 81, 28);"></path></g><g class="path" style="transform: rotate(0deg); transform-origin: -10.6201px -24.3102px; animation: 1s linear -0.33s infinite normal forwards running jingle-8f868426-caed-4afe-a914-11dbd5dae58d;"><path d="M219.00-33.61L219.00-5.61L219.00-5.61Q219.00-4.46 218.56-3.43L218.56-3.43L218.56-3.43Q218.12-2.41 217.36-1.64L217.36-1.64L217.36-1.64Q216.59-0.88 215.56-0.44L215.56-0.44L215.56-0.44Q214.54 0 213.39 0L213.39 0L191.00 0L191.00 0Q189.85 0 188.82-0.44L188.82-0.44L188.82-0.44Q187.80-0.88 187.03-1.64L187.03-1.64L187.03-1.64Q186.27-2.41 185.83-3.43L185.83-3.43L185.83-3.43Q185.39-4.46 185.39-5.61L185.39-5.61L185.39-33.61L185.39-33.61Q185.39-34.75 185.83-35.78L185.83-35.78L185.83-35.78Q186.27-36.80 187.03-37.56L187.03-37.56L187.03-37.56Q187.80-38.31 188.82-38.76L188.82-38.76L188.82-38.76Q189.85-39.21 191.00-39.21L191.00-39.21L213.39-39.21L213.39-39.21Q214.54-39.21 215.56-38.76L215.56-38.76L215.56-38.76Q216.59-38.31 217.36-37.56L217.36-37.56L217.36-37.56Q218.12-36.80 218.56-35.78L218.56-35.78L218.56-35.78Q219.00-34.75 219.00-33.61L219.00-33.61zM213.39-33.61L191.00-33.61L191.00-5.61L213.39-5.61L213.39-33.61" fill="#2f2926" stroke="none" stroke-width="none" transform="translate(-212.8150634765625,14.89980110168457)" style="fill: rgb(188, 133, 64);"></path></g><g class="path" style="transform: rotate(0deg); transform-origin: 31.9249px -24.3102px; animation: 1s linear -0.264s infinite normal forwards running jingle-8f868426-caed-4afe-a914-11dbd5dae58d;"><path d="M260.04-29.67L260.04-25.21L260.04-25.21Q260.04-17.01 253.04-15.86L253.04-15.86L260.42 0L254.21 0L246.94-15.67L234.66-15.67L234.66 0L229.06 0L229.06-39.21L250.52-39.21L250.52-39.21Q260.04-39.21 260.04-29.67L260.04-29.67zM234.66-33.61L234.66-21.27L250.22-21.27L250.22-21.27Q252.46-21.27 253.45-22.26L253.45-22.26L253.45-22.26Q254.43-23.24 254.43-25.48L254.43-25.48L254.43-29.39L254.43-29.39Q254.43-31.64 253.45-32.62L253.45-32.62L253.45-32.62Q252.46-33.61 250.22-33.61L250.22-33.61L234.66-33.61" fill="#2f2926" stroke="none" stroke-width="none" transform="translate(-212.8150634765625,14.89980110168457)" style="fill: rgb(213, 145, 46);"></path></g><g class="path" style="transform: rotate(0deg); transform-origin: 68.8949px -24.3102px; animation: 1s linear -0.198s infinite normal forwards running jingle-8f868426-caed-4afe-a914-11dbd5dae58d;"><path d="M266.03-33.61L266.03-39.21L297.39-39.21L297.39-33.61L284.51-33.61L284.51 0L278.91 0L278.91-33.61L266.03-33.61" fill="#2f2926" stroke="none" stroke-width="none" transform="translate(-212.8150634765625,14.89980110168457)" style="fill: rgb(227, 171, 69);"></path></g><g class="path" style="transform: rotate(0deg); transform-origin: 124.895px -24.3102px; animation: 1s linear -0.132s infinite normal forwards running jingle-8f868426-caed-4afe-a914-11dbd5dae58d;"><path d="M320.91-5.61L320.91-39.21L326.51-39.21L326.51-5.61L348.91-5.61L348.91-39.21L354.51-39.21L354.51-5.61L354.51-5.61Q354.51-4.46 354.07-3.43L354.07-3.43L354.07-3.43Q353.64-2.41 352.87-1.64L352.87-1.64L352.87-1.64Q352.11-0.88 351.08-0.44L351.08-0.44L351.08-0.44Q350.05 0 348.91 0L348.91 0L326.51 0L326.51 0Q325.36 0 324.34-0.44L324.34-0.44L324.34-0.44Q323.31-0.88 322.55-1.64L322.55-1.64L322.55-1.64Q321.78-2.41 321.34-3.43L321.34-3.43L321.34-3.43Q320.91-4.46 320.91-5.61L320.91-5.61" fill="#2f2926" stroke="none" stroke-width="none" transform="translate(-212.8150634765625,14.89980110168457)" style="fill: rgb(47, 41, 38);"></path></g><g class="path" style="transform: rotate(0deg); transform-origin: 167.44px -24.3102px; animation: 1s linear -0.066s infinite normal forwards running jingle-8f868426-caed-4afe-a914-11dbd5dae58d;"><path d="M395.55-29.67L395.55-25.21L395.55-25.21Q395.55-17.01 388.55-15.86L388.55-15.86L395.94 0L389.73 0L382.46-15.67L370.18-15.67L370.18 0L364.57 0L364.57-39.21L386.04-39.21L386.04-39.21Q395.55-39.21 395.55-29.67L395.55-29.67zM370.18-33.61L370.18-21.27L385.74-21.27L385.74-21.27Q387.98-21.27 388.96-22.26L388.96-22.26L388.96-22.26Q389.95-23.24 389.95-25.48L389.95-25.48L389.95-29.39L389.95-29.39Q389.95-31.64 388.96-32.62L388.96-32.62L388.96-32.62Q387.98-33.61 385.74-33.61L385.74-33.61L370.18-33.61" fill="#2f2926" stroke="none" stroke-width="none" transform="translate(-212.8150634765625,14.89980110168457)" style="fill: rgb(96, 52, 23);"></path></g><g class="path" style="transform: rotate(0deg); transform-origin: 204.97px -24.3102px; animation: 1s linear 0s infinite normal forwards running jingle-8f868426-caed-4afe-a914-11dbd5dae58d;"><path d="M404.91-39.21L410.51-39.21L410.51-5.61L430.66-5.61L430.66 0L404.91 0L404.91-39.21" fill="#2f2926" stroke="none" stroke-width="none" transform="translate(-212.8150634765625,14.89980110168457)" style="fill: rgb(116, 65, 31);"></path></g></g>
  </g>
</g>
<style id="jingle-8f868426-caed-4afe-a914-11dbd5dae58d" data-anikit="">@keyframes jingle-8f868426-caed-4afe-a914-11dbd5dae58d
{
  0% {
    animation-timing-function: cubic-bezier(0.146,0.2111,0.5902,1.3204);
    transform: rotate(0deg);
  }
  11% {
    animation-timing-function: cubic-bezier(0.1079,0.1992,-0.6462,0.828);
    transform: rotate(7.61deg);
  }
  23% {
    animation-timing-function: cubic-bezier(0.0504,0.0951,0.0163,0.9677);
    transform: rotate(-5.789999999999999deg);
  }
  36% {
    animation-timing-function: cubic-bezier(0.0475,0.0921,0.3134,1.0455);
    transform: rotate(3.35deg);
  }
  49% {
    animation-timing-function: cubic-bezier(0.0789,0.1565,0.3413,1.0972);
    transform: rotate(-1.9300000000000002deg);
  }
  62% {
    animation-timing-function: cubic-bezier(0.141,0.2885,0.406,1.1519);
    transform: rotate(1.12deg);
  }
  75% {
    animation-timing-function: cubic-bezier(0.226,0.4698,0.5031,1.1722);
    transform: rotate(-0.64deg);
  }
  88% {
    animation-timing-function: cubic-bezier(0.3121,0.5521,0.5655,0.8997);
    transform: rotate(0.37deg);
  }
  100% {
    transform: rotate(-0.28deg);
  }
}</style>
</svg>