<svg viewBox="0 0 100 100" xmlns="http://www.w3.org/2000/svg" style="height: 100%; width: 100%;" width="200px" height="200px"><g class="ldl-scale" style="transform-origin: 50% 50%; transform: rotate(0deg) scale(0.8, 0.8);"><g class="ldl-ani"><g class="ldl-layer"><g class="ldl-ani" style="transform-origin: 50px 50px; animation: 1.11111s linear -0.740741s infinite normal forwards running static-c8a01d37-658c-4edc-8b29-9884f816562b;"><path stroke-miterlimit="10" stroke-width="3" stroke="#323232" fill="none" d="M47.962 10.051c-20.276 1.006-36.785 17.429-37.9 37.699-.482 8.762 1.87 16.943 6.206 23.736l-4.889 14.443c-.564 1.667 1.027 3.258 2.693 2.693l14.443-4.889c6.793 4.336 14.974 6.688 23.736 6.206 20.27-1.115 36.693-17.624 37.699-37.9 1.175-23.701-18.288-43.165-41.988-41.988z" style="stroke: rgb(50, 50, 50);"></path></g></g><g class="ldl-layer"><g class="ldl-ani"><g><g class="ldl-layer"><g class="ldl-ani" style="transform-origin: 50px 50px; animation: 1.11111s linear -0.925926s infinite normal forwards running static-c8a01d37-658c-4edc-8b29-9884f816562b;"><path stroke-miterlimit="10" stroke-width="3" stroke="#76a4bd" fill="none" d="M54.435 71.5h-8.87A1.565 1.565 0 0 1 44 69.935v-20.87c0-.864.701-1.565 1.565-1.565h8.87c.864 0 1.565.701 1.565 1.565v20.87c0 .864-.701 1.565-1.565 1.565z" style="stroke: rgb(255, 232, 214);"></path></g></g><g class="ldl-layer"><g class="ldl-ani" style="transform-origin: 50px 50px; animation: 1.11111s linear -1.11111s infinite normal forwards running static-c8a01d37-658c-4edc-8b29-9884f816562b;"><path stroke-miterlimit="10" stroke-width="3" stroke="#76a4bd" fill="none" d="M50 28h0a7.25 7.25 0 0 0-7.25 7.25v0A7.25 7.25 0 0 0 50 42.5h0a7.25 7.25 0 0 0 7.25-7.25v0A7.25 7.25 0 0 0 50 28z" style="stroke: rgb(255, 232, 214);"></path></g></g></g></g></g><metadata xmlns:d="https://loading.io/stock/">
</metadata></g></g></svg>