<svg viewBox="0 0 100 100" xmlns="http://www.w3.org/2000/svg" style="height: 100%; width: 100%;" width="200px" height="200px"><g class="ldl-scale" style="transform-origin: 50% 50%; transform: rotate(0deg) scale(0.77, 0.77);"><g class="ldl-ani"><g class="ldl-layer"><g class="ldl-ani" style="transform-origin: 50px 50px; transform: scale(0.85); animation: 12.5s linear -9.08333s infinite normal forwards running pulse-334d6534-6316-487c-b8f7-23151a4bb01d;"><path fill="#f5e169" d="M20.788 71.53l9.562-14.035c.548-.734.163-1.995-.609-1.995l-12.398.001c-.881 0-1.684.681-2.066 1.752L6.064 78.968c-.148.394.062.861.39.864h14.331l-3.169 8.047c-.257.596-.158 1.355.235 1.795.393.44.964.433 1.351-.018L33.83 72.604c.31-.362.119-1.05-.292-1.045l-12.75-.029z" style="fill: rgb(250, 217, 109);"></path></g></g><g class="ldl-layer"><g class="ldl-ani" style="transform-origin: 50px 50px; transform: scale(0.85); animation: 12.5s linear -10.7917s infinite normal forwards running pulse-334d6534-6316-487c-b8f7-23151a4bb01d;"><path fill="#f8b26a" d="M51.827 47.172l22.172-32.545c1.27-1.702.378-4.627-1.412-4.627l-28.75.002c-2.042 0-3.904 1.579-4.791 4.062l-21.36 50.354c-.343.914.145 1.996.904 2.004h33.231l-7.349 18.66c-.596 1.381-.366 3.142.545 4.163.911 1.021 2.236 1.004 3.132-.041L82.07 49.661c.72-.839.275-2.434-.676-2.424l-29.567-.065z" style="fill: rgb(234, 177, 69);"></path></g></g><g class="ldl-layer"><g class="ldl-ani" style="transform-origin: 50px 50px; transform: scale(0.85); animation: 12.5s linear -12.5s infinite normal forwards running pulse-334d6534-6316-487c-b8f7-23151a4bb01d;"><path fill="#f5e169" d="M80.788 71.53l9.562-14.035c.548-.734.163-1.995-.609-1.995l-12.398.001c-.881 0-1.684.681-2.066 1.752l-9.212 21.715c-.148.394.062.861.39.864h14.331l-3.169 8.047c-.257.596-.158 1.355.235 1.795.393.44.964.433 1.351-.018L93.83 72.604c.31-.362.119-1.05-.292-1.045l-12.75-.029z" style="fill: rgb(250, 217, 109);"></path></g></g>
</g></g>
<style id="pulse-334d6534-6316-487c-b8f7-23151a4bb01d" data-anikit="">@keyframes pulse-334d6534-6316-487c-b8f7-23151a4bb01d
{
  0% {
    animation-timing-function: cubic-bezier(0.3333,0.3333,0.3124,0.6668);
    transform: scale(0.85);
  }
  0.5% {
    animation-timing-function: cubic-bezier(0.0233,-0.3865,0.6667,0.6667);
    transform: scale(1.141);
  }
  1.5% {
    animation-timing-function: cubic-bezier(0.2893,0.354,0.6158,0.6958);
    transform: scale(1.124);
  }
  11% {
    animation-timing-function: cubic-bezier(0.2861,0.4196,0.6215,0.7476);
    transform: scale(0.992);
  }
  25% {
    animation-timing-function: cubic-bezier(0.0793,0.2627,0.9972,1.5511);
    transform: scale(0.887);
  }
  49.5% {
    animation-timing-function: cubic-bezier(0.6664,0.3332,0.6667,0.6667);
    transform: scale(0.85);
  }
  50% {
    animation-timing-function: cubic-bezier(0,0.3522,1,0.6686);
    transform: scale(1.1500000000000001);
  }
  51% {
    animation-timing-function: cubic-bezier(0.2668,0.4036,0.554,0.7657);
    transform: scale(1.1320000000000001);
  }
  73.5% {
    animation-timing-function: cubic-bezier(0.2997,1.0028,0.6671,1);
    transform: scale(0.894);
  }
  100% {
    transform: scale(0.85);
  }
}</style></svg>