<svg viewBox="0 0 100 100" xmlns="http://www.w3.org/2000/svg" style="height: 100%; width: 100%;" width="200px" height="200px"><g class="ldl-scale" style="transform-origin: 50% 50%; transform: rotate(0deg) scale(0.8, 0.8);"><g class="ldl-ani"><g class="ldl-layer"><g class="ldl-ani"><g><g class="ldl-layer"><g class="ldl-ani" style="transform-origin: 50px 50px; transform: matrix(0.01, 0, 0, 0.01, 0, 0); animation: 1.14943s linear 0.517241s 1 normal forwards running bounce-alt-in-2a90a58f-318c-4e52-8a24-3003a59b4f01;"><path fill="#e15c64" d="M30.052 59.401l-9.988 25.833c-.273.706.444 1.39 1.136 1.084l9.4-4.158a.85.85 0 0 1 1.121.433l4.158 9.4c.306.692 1.297.669 1.57-.037l9.988-25.833c2.052-5.307-1.09-11.199-6.64-12.452a9.321 9.321 0 0 0-10.745 5.73z" style="fill: rgb(152, 51, 26);"></path></g></g><g class="ldl-layer"><g class="ldl-ani" style="transform-origin: 50px 50px; transform: matrix(0.01, 0, 0, 0.01, 0, 0); animation: 1.14943s linear 0.45977s 1 normal forwards running bounce-alt-in-2a90a58f-318c-4e52-8a24-3003a59b4f01;"><path opacity=".1" d="M40.797 53.421a9.318 9.318 0 0 0-10.745 5.73l-.477 1.233c1.697 3.883 2.674 8.407 2.674 13.241 0 2.892-.354 5.671-.997 8.271a.85.85 0 0 1 .469.448l4.158 9.4c.306.692 1.297.669 1.57-.037l9.988-25.833c2.053-5.308-1.089-11.199-6.64-12.453z" style="fill: rgb(204, 147, 27);"></path></g></g></g></g></g><g class="ldl-layer"><g class="ldl-ani"><g><g class="ldl-layer"><g class="ldl-ani" style="transform-origin: 50px 50px; transform: matrix(0.01, 0, 0, 0.01, 0, 0); animation: 1.14943s linear 0.402299s 1 normal forwards running bounce-alt-in-2a90a58f-318c-4e52-8a24-3003a59b4f01;"><path fill="#e15c64" d="M68.946 59.401l9.988 25.833c.273.706-.444 1.39-1.136 1.084l-9.4-4.158a.85.85 0 0 0-1.121.433l-4.158 9.4c-.306.692-1.297.669-1.57-.037L51.56 66.123c-2.052-5.307 1.09-11.199 6.64-12.452a9.322 9.322 0 0 1 10.746 5.73z" style="fill: rgb(152, 51, 26);"></path></g></g><g class="ldl-layer"><g class="ldl-ani" style="transform-origin: 50px 50px; transform: matrix(0.01, 0, 0, 0.01, 0, 0); animation: 1.14943s linear 0.344828s 1 normal forwards running bounce-alt-in-2a90a58f-318c-4e52-8a24-3003a59b4f01;"><path opacity=".1" d="M78.934 85.235l-9.988-25.833a9.318 9.318 0 0 0-10.745-5.73c-5.551 1.253-8.692 7.145-6.64 12.452l1.887 4.881c5.832.055 10.973 4.516 14.047 11.299a.845.845 0 0 1 .903-.143l9.4 4.158c.692.306 1.409-.378 1.136-1.084z" style="fill: rgb(204, 147, 27);"></path></g></g></g></g></g><g class="ldl-layer"><g class="ldl-ani"><g><g class="ldl-layer"><g class="ldl-ani" style="transform-origin: 50px 50px; transform: matrix(0.01, 0, 0, 0.01, 0, 0); animation: 1.14943s linear 0.287356s 1 normal forwards running bounce-alt-in-2a90a58f-318c-4e52-8a24-3003a59b4f01;"><path fill="#f47e5f" d="M51.918 8.268l2.671 2.545a2.78 2.78 0 0 0 2.92.581l3.442-1.329a2.782 2.782 0 0 1 3.545 1.468l1.494 3.374a2.781 2.781 0 0 0 2.476 1.654l3.689.089a2.782 2.782 0 0 1 2.713 2.713l.089 3.689a2.781 2.781 0 0 0 1.654 2.476l3.374 1.494a2.78 2.78 0 0 1 1.468 3.545l-1.329 3.442a2.78 2.78 0 0 0 .581 2.92L83.25 39.6a2.782 2.782 0 0 1 0 3.837l-2.545 2.671a2.78 2.78 0 0 0-.581 2.92l1.329 3.442a2.782 2.782 0 0 1-1.468 3.545l-3.374 1.494a2.781 2.781 0 0 0-1.654 2.476l-.089 3.689a2.782 2.782 0 0 1-2.713 2.713l-3.689.089a2.781 2.781 0 0 0-2.476 1.654l-1.494 3.374a2.78 2.78 0 0 1-3.545 1.468l-3.442-1.329a2.78 2.78 0 0 0-2.92.581l-2.671 2.545a2.782 2.782 0 0 1-3.837 0l-2.671-2.545a2.78 2.78 0 0 0-2.92-.581l-3.442 1.329a2.782 2.782 0 0 1-3.545-1.468l-1.494-3.374a2.781 2.781 0 0 0-2.476-1.654l-3.689-.089a2.782 2.782 0 0 1-2.713-2.713l-.089-3.689a2.781 2.781 0 0 0-1.654-2.476l-3.374-1.494a2.78 2.78 0 0 1-1.468-3.545l1.329-3.442a2.78 2.78 0 0 0-.581-2.92l-2.545-2.671a2.782 2.782 0 0 1 0-3.837l2.545-2.671a2.78 2.78 0 0 0 .581-2.92l-1.329-3.442a2.782 2.782 0 0 1 1.468-3.545l3.374-1.494a2.781 2.781 0 0 0 1.654-2.476l.089-3.689a2.782 2.782 0 0 1 2.713-2.713l3.689-.089a2.781 2.781 0 0 0 2.476-1.654l1.494-3.374a2.78 2.78 0 0 1 3.545-1.468l3.442 1.329a2.78 2.78 0 0 0 2.92-.581l2.671-2.545a2.78 2.78 0 0 1 3.837 0z" style="fill: rgb(212, 210, 64);"></path></g></g><g class="ldl-layer"><g class="ldl-ani" style="transform-origin: 50px 50px; transform: matrix(0.01, 0, 0, 0.01, 0, 0); animation: 1.14943s linear 0.229885s 1 normal forwards running bounce-alt-in-2a90a58f-318c-4e52-8a24-3003a59b4f01;"><circle fill="#f7b26a" r="22.55" cy="41.517" cx="50" style="fill: rgb(253, 200, 35);"></circle></g></g><g class="ldl-layer"><g class="ldl-ani" style="transform-origin: 50px 50px; transform: matrix(0.01, 0, 0, 0.01, 0, 0); animation: 1.14943s linear 0.172414s 1 normal forwards running bounce-alt-in-2a90a58f-318c-4e52-8a24-3003a59b4f01;"><path stroke-miterlimit="10" stroke-linejoin="round" stroke-linecap="round" stroke-width="3" stroke="#fff" fill="none" d="M36.177 30.783a17.572 17.572 0 0 1 6.36-5.1" style="stroke: rgb(236, 166, 17);"></path></g></g><g class="ldl-layer"><g class="ldl-ani" style="transform-origin: 50px 50px; transform: matrix(0.01, 0, 0, 0.01, 0, 0); animation: 1.14943s linear 0.114943s 1 normal forwards running bounce-alt-in-2a90a58f-318c-4e52-8a24-3003a59b4f01;"><path stroke-miterlimit="10" stroke-linejoin="round" stroke-linecap="round" stroke-width="3" stroke="#fff" fill="none" d="M33.313 36.23c.128-.403.269-.8.425-1.189" style="stroke: rgb(236, 166, 17);"></path></g></g><g class="ldl-layer"><g class="ldl-ani" style="transform-origin: 50px 50px; transform: matrix(0.01, 0, 0, 0.01, 0, 0); animation: 1.14943s linear 0.0574713s 1 normal forwards running bounce-alt-in-2a90a58f-318c-4e52-8a24-3003a59b4f01;"><path fill="#f5e169" d="M50.948 28.138l3.452 6.995c.154.312.451.528.796.578l7.719 1.122a1.056 1.056 0 0 1 .586 1.802l-5.586 5.445a1.057 1.057 0 0 0-.304.935l1.319 7.688a1.057 1.057 0 0 1-1.533 1.114l-6.904-3.63a1.055 1.055 0 0 0-.983 0l-6.904 3.63a1.057 1.057 0 0 1-1.533-1.114l1.319-7.688a1.055 1.055 0 0 0-.304-.935L36.5 38.634a1.056 1.056 0 0 1 .586-1.802l7.719-1.122c.344-.05.642-.266.796-.578l3.452-6.995a1.057 1.057 0 0 1 1.895.001z" style="fill: rgb(255, 243, 106);"></path></g></g><g class="ldl-layer"><g class="ldl-ani" style="transform-origin: 50px 50px; transform: matrix(0.01, 0, 0, 0.01, 0, 0); animation: 1.14943s linear 0s 1 normal forwards running bounce-alt-in-2a90a58f-318c-4e52-8a24-3003a59b4f01;"><path opacity=".1" d="M83.25 43.436a2.782 2.782 0 0 0 0-3.837l-2.545-2.671a2.78 2.78 0 0 1-.581-2.92l1.329-3.442a2.782 2.782 0 0 0-1.468-3.545l-1.497-.663C75.291 49.799 57.317 67.75 35.622 67.75a39.42 39.42 0 0 1-1.857-.053c.092.136.177.278.245.431l1.494 3.374a2.78 2.78 0 0 0 3.545 1.468l3.442-1.329a2.78 2.78 0 0 1 2.92.581l2.671 2.545a2.782 2.782 0 0 0 3.837 0l2.671-2.545a2.78 2.78 0 0 1 2.92-.581l3.442 1.329a2.782 2.782 0 0 0 3.545-1.468l1.494-3.374a2.781 2.781 0 0 1 2.476-1.654l3.689-.089a2.782 2.782 0 0 0 2.713-2.713l.089-3.689a2.781 2.781 0 0 1 1.654-2.476l3.374-1.494a2.78 2.78 0 0 0 1.468-3.545l-1.329-3.442a2.78 2.78 0 0 1 .581-2.92l2.544-2.67z" style="fill: rgb(204, 147, 27);"></path></g></g></g></g></g><metadata xmlns:d="https://loading.io/stock/">
<d:name>award</d:name>
<d:tags>award,medal,champion,prize,corsage,badge,trophy,tribute,proof,certificate</d:tags>
<d:license>by</d:license>
<d:slug>xblajr</d:slug>
</metadata></g></g>
<style id="bounce-alt-in-2a90a58f-318c-4e52-8a24-3003a59b4f01" data-anikit="">@keyframes bounce-alt-in-2a90a58f-318c-4e52-8a24-3003a59b4f01
{
  0% {
    animation-timing-function: cubic-bezier(0.0955,0.3456,-1.5085,0.6684);
    transform: matrix(0.01,0,0,0.01,0,0);
    opacity: 1;
  }
  3.3% {
    animation-timing-function: cubic-bezier(0.0913,0.1631,0.2418,0.9474);
    transform: matrix(0.607,0,0,0.607,0,0);
    opacity: 1;
  }
  16.4% {
    animation-timing-function: cubic-bezier(0.5391,0.1345,0.3944,0.9496);
    transform: matrix(1.079,0,0,1.079,0,0);
    opacity: 1;
  }
  32.3% {
    animation-timing-function: cubic-bezier(0.5053,0.1012,0.4542,0.9453);
    transform: matrix(0.84,0,0,0.84,0,0);
    opacity: 1;
  }
  49.7% {
    animation-timing-function: cubic-bezier(0.4074,0.0845,0.5696,1);
    transform: matrix(1.033,0,0,1.033,0,0);
    opacity: 1;
  }
  65.3% {
    animation-timing-function: cubic-bezier(0.3701,0,0.6111,1);
    transform: matrix(0.939,0,0,0.939,0,0);
    opacity: 1;
  }
  82.6% {
    animation-timing-function: cubic-bezier(0.336,0,0.6629,1);
    transform: matrix(1.009,0,0,1.009,0,0);
    opacity: 1;
  }
  94.3% {
    animation-timing-function: cubic-bezier(0.3368,0,0.6709,1);
    transform: matrix(0.994,0,0,0.994,0,0);
    opacity: 1;
  }
  100% {
    transform: matrix(1,0,0,1,0,0);
    opacity: 1;
  }
}</style>
</svg>