<svg xml:space="preserve" viewBox="0 0 100 100" y="0px" x="0px" xmlns:xlink="http://www.w3.org/1999/xlink" xmlns="http://www.w3.org/2000/svg" id="圖層_1" version="1.1" style="height: 100%; width: 100%;" width="200px" height="200px"><g class="ldl-scale" style="transform-origin: 50% 50%; transform: rotate(0deg) scale(0.8, 0.8);"><g class="ldl-ani"><g class="ldl-layer"><g class="ldl-ani"><g><g class="ldl-layer"><g class="ldl-ani" style="transform-origin: 50px 50px; transform: scale(0.91); animation: 6.66667s linear -4.16667s infinite normal forwards running breath-34c294bf-be39-4131-b3e8-15179198d814;"><path d="M37.8,84.8C33.6,75.2,26.6,68.1,17,63.6 c9.8-3.8,16.7-10.6,20.8-20.4C42,52.9,48.9,59.9,58.6,64C48.9,68.2,42,75.1,37.8,84.8z" stroke-miterlimit="10" stroke-width="3.5" stroke="#333435" fill="#F5E169" style="fill: rgb(245, 225, 105); stroke: rgb(51, 52, 53);"></path></g></g><g class="ldl-layer"><g class="ldl-ani" style="transform-origin: 50px 50px; transform: scale(0.91); animation: 6.66667s linear -5s infinite normal forwards running breath-34c294bf-be39-4131-b3e8-15179198d814;"><path d="M67.9,47.7c-2.7-6.2-7.1-10.7-13.3-13.5 c6.3-2.4,10.6-6.8,13.3-13c2.7,6.2,7.1,10.6,13.3,13.3C75,37.1,70.6,41.6,67.9,47.7z" stroke-miterlimit="10" stroke-width="3.5" stroke="#333435" fill="#F5E169" style="fill: rgb(245, 225, 105); stroke: rgb(51, 52, 53);"></path></g></g></g></g></g><g class="ldl-layer"><g class="ldl-ani"><g><g class="ldl-layer"><g class="ldl-ani" style="transform-origin: 50px 50px; transform: scale(0.91); animation: 6.66667s linear -5.83333s infinite normal forwards running breath-34c294bf-be39-4131-b3e8-15179198d814;"><path d="M28.4,38c-2.3-5.3-6.2-9.2-11.4-11.6 c5.4-2.1,9.2-5.8,11.4-11.2c2.3,5.3,6.1,9.1,11.4,11.4C34.5,28.9,30.7,32.7,28.4,38z" stroke-miterlimit="10" stroke-width="3.5" stroke="#333435" fill="#F5E169" style="fill: rgb(245, 225, 105); stroke: rgb(51, 52, 53);"></path></g></g><g class="ldl-layer"><g class="ldl-ani" style="transform-origin: 50px 50px; transform: scale(0.91); animation: 6.66667s linear -6.66667s infinite normal forwards running breath-34c294bf-be39-4131-b3e8-15179198d814;"><path d="M73.8,81.6c-1.9-4.3-5-7.4-9.2-9.4 c4.3-1.7,7.4-4.7,9.2-9c1.8,4.3,4.9,7.4,9.2,9.2C78.7,74.3,75.6,77.3,73.8,81.6z" stroke-miterlimit="10" stroke-width="3.5" stroke="#333435" fill="#F5E169" style="fill: rgb(245, 225, 105); stroke: rgb(51, 52, 53);"></path></g></g></g></g></g></g></g>
<style id="breath-34c294bf-be39-4131-b3e8-15179198d814" data-anikit="">@keyframes breath-34c294bf-be39-4131-b3e8-15179198d814
{
  0% {
    animation-timing-function: cubic-bezier(0.9647,0.2413,-0.0705,0.7911);
    transform: scale(0.9099999999999999);
  }
  51% {
    animation-timing-function: cubic-bezier(0.9226,0.2631,-0.0308,0.7628);
    transform: scale(1.02994);
  }
  100% {
    transform: scale(0.9099999999999999);
  }
}</style></svg>